<mxfile host="app.diagrams.net" modified="2024-04-03T19:03:57.155Z" agent="Mozilla/5.0 (Windows NT 10.0; Win64; x64) AppleWebKit/537.36 (KHTML, like Gecko) Chrome/122.0.0.0 Safari/537.36" etag="qqpVf8CEJG8S2mmS9KuV" version="24.2.1" type="github">
  <diagram id="R2lEEEUBdFMjLlhIrx00" name="Page-1">
    <mxGraphModel dx="1477" dy="660" grid="1" gridSize="10" guides="1" tooltips="1" connect="1" arrows="1" fold="1" page="1" pageScale="1" pageWidth="850" pageHeight="1100" math="0" shadow="0" extFonts="Permanent Marker^https://fonts.googleapis.com/css?family=Permanent+Marker">
      <root>
        <mxCell id="0" />
        <mxCell id="1" parent="0" />
        <mxCell id="YkJlxvteugCw9PptVSyT-5" value="L1: EMPLOYEE" style="text;html=1;align=center;verticalAlign=middle;resizable=0;points=[];autosize=1;strokeColor=none;fillColor=none;" parent="1" vertex="1">
          <mxGeometry x="50" y="125" width="110" height="30" as="geometry" />
        </mxCell>
        <mxCell id="YkJlxvteugCw9PptVSyT-7" value="&lt;u&gt;Emp_id&lt;/u&gt;&lt;div&gt;[N,9]&lt;/div&gt;" style="whiteSpace=wrap;html=1;align=center;" parent="1" vertex="1">
          <mxGeometry x="160" y="120" width="100" height="40" as="geometry" />
        </mxCell>
        <mxCell id="YkJlxvteugCw9PptVSyT-8" value="Emp_firstname&lt;div&gt;[A,20]&lt;br&gt;&lt;/div&gt;" style="whiteSpace=wrap;html=1;align=center;" parent="1" vertex="1">
          <mxGeometry x="260" y="120" width="100" height="40" as="geometry" />
        </mxCell>
        <mxCell id="YkJlxvteugCw9PptVSyT-9" value="Emp_midname&lt;div&gt;[A,20]&lt;br&gt;&lt;/div&gt;" style="whiteSpace=wrap;html=1;align=center;" parent="1" vertex="1">
          <mxGeometry x="360" y="120" width="100" height="40" as="geometry" />
        </mxCell>
        <mxCell id="YkJlxvteugCw9PptVSyT-10" value="Emp_lastname&lt;div&gt;[A,20]&lt;br&gt;&lt;/div&gt;" style="whiteSpace=wrap;html=1;align=center;" parent="1" vertex="1">
          <mxGeometry x="460" y="120" width="100" height="40" as="geometry" />
        </mxCell>
        <mxCell id="YkJlxvteugCw9PptVSyT-11" value="L2: MANAGER" style="text;html=1;align=center;verticalAlign=middle;resizable=0;points=[];autosize=1;strokeColor=none;fillColor=none;" parent="1" vertex="1">
          <mxGeometry x="60" y="245" width="100" height="30" as="geometry" />
        </mxCell>
        <mxCell id="YkJlxvteugCw9PptVSyT-12" value="&lt;u&gt;Mngr_emp_id&lt;/u&gt;&lt;div&gt;[N,9]&lt;/div&gt;" style="whiteSpace=wrap;html=1;align=center;" parent="1" vertex="1">
          <mxGeometry x="160" y="240" width="100" height="40" as="geometry" />
        </mxCell>
        <mxCell id="YkJlxvteugCw9PptVSyT-13" value="Mngr_bonus&lt;div&gt;[N,6]&lt;/div&gt;" style="whiteSpace=wrap;html=1;align=center;" parent="1" vertex="1">
          <mxGeometry x="260" y="240" width="100" height="40" as="geometry" />
        </mxCell>
        <mxCell id="YkJlxvteugCw9PptVSyT-26" value="L3: ASSIGNMENT" style="text;html=1;align=center;verticalAlign=middle;resizable=0;points=[];autosize=1;strokeColor=none;fillColor=none;" parent="1" vertex="1">
          <mxGeometry x="40" y="365" width="120" height="30" as="geometry" />
        </mxCell>
        <mxCell id="YkJlxvteugCw9PptVSyT-27" value="Agmt_hours&lt;div&gt;[N,3]&lt;/div&gt;" style="whiteSpace=wrap;html=1;align=center;" parent="1" vertex="1">
          <mxGeometry x="370" y="360" width="100" height="40" as="geometry" />
        </mxCell>
        <mxCell id="YkJlxvteugCw9PptVSyT-29" value="Emp_gender&lt;div&gt;[A,1]&lt;/div&gt;" style="whiteSpace=wrap;html=1;align=center;" parent="1" vertex="1">
          <mxGeometry x="560" y="120" width="100" height="40" as="geometry" />
        </mxCell>
        <mxCell id="YkJlxvteugCw9PptVSyT-30" value="Emp_salary&lt;div&gt;[N,6]&lt;/div&gt;" style="whiteSpace=wrap;html=1;align=center;" parent="1" vertex="1">
          <mxGeometry x="660" y="120" width="100" height="40" as="geometry" />
        </mxCell>
        <mxCell id="YkJlxvteugCw9PptVSyT-32" value="L5: INTERNAL PROJECT" style="text;html=1;align=center;verticalAlign=middle;resizable=0;points=[];autosize=1;strokeColor=none;fillColor=none;" parent="1" vertex="1">
          <mxGeometry x="680" y="365" width="160" height="30" as="geometry" />
        </mxCell>
        <mxCell id="YkJlxvteugCw9PptVSyT-33" value="Intprj_priorityrating&lt;div&gt;[A,1]&lt;/div&gt;" style="whiteSpace=wrap;html=1;align=center;" parent="1" vertex="1">
          <mxGeometry x="940" y="360" width="115" height="40" as="geometry" />
        </mxCell>
        <mxCell id="YkJlxvteugCw9PptVSyT-34" value="L6: EXTERNAL PROJECT" style="text;html=1;align=center;verticalAlign=middle;resizable=0;points=[];autosize=1;strokeColor=none;fillColor=none;" parent="1" vertex="1">
          <mxGeometry x="670" y="485" width="170" height="30" as="geometry" />
        </mxCell>
        <mxCell id="YkJlxvteugCw9PptVSyT-35" value="Extprj_contractcost&lt;div&gt;[N,8.2]&lt;/div&gt;" style="whiteSpace=wrap;html=1;align=center;" parent="1" vertex="1">
          <mxGeometry x="940" y="480" width="110" height="40" as="geometry" />
        </mxCell>
        <mxCell id="YkJlxvteugCw9PptVSyT-36" value="L4: PROJECT" style="text;html=1;align=center;verticalAlign=middle;resizable=0;points=[];autosize=1;strokeColor=none;fillColor=none;" parent="1" vertex="1">
          <mxGeometry x="60" y="485" width="100" height="30" as="geometry" />
        </mxCell>
        <mxCell id="YkJlxvteugCw9PptVSyT-37" value="&lt;u&gt;Prj_no&lt;/u&gt;&lt;div&gt;[N,9]&lt;/div&gt;" style="whiteSpace=wrap;html=1;align=center;" parent="1" vertex="1">
          <mxGeometry x="160" y="480" width="100" height="40" as="geometry" />
        </mxCell>
        <mxCell id="YkJlxvteugCw9PptVSyT-38" value="Prj_budget&lt;div&gt;[N,8.2]&lt;/div&gt;" style="whiteSpace=wrap;html=1;align=center;" parent="1" vertex="1">
          <mxGeometry x="260" y="480" width="100" height="40" as="geometry" />
        </mxCell>
        <mxCell id="YkJlxvteugCw9PptVSyT-39" value="Prj_startdate&lt;div&gt;[Dt,8]&lt;/div&gt;" style="whiteSpace=wrap;html=1;align=center;" parent="1" vertex="1">
          <mxGeometry x="360" y="480" width="100" height="40" as="geometry" />
        </mxCell>
        <mxCell id="YkJlxvteugCw9PptVSyT-40" value="Prj_description&lt;div&gt;[X,120]&lt;/div&gt;" style="whiteSpace=wrap;html=1;align=center;" parent="1" vertex="1">
          <mxGeometry x="460" y="480" width="100" height="40" as="geometry" />
        </mxCell>
        <mxCell id="YkJlxvteugCw9PptVSyT-41" value="Prj_actualcost&lt;div&gt;[N,8.2]&lt;/div&gt;" style="whiteSpace=wrap;html=1;align=center;" parent="1" vertex="1">
          <mxGeometry x="560" y="480" width="100" height="40" as="geometry" />
        </mxCell>
        <mxCell id="YkJlxvteugCw9PptVSyT-42" value="&lt;u&gt;Intprj_prj_no&lt;/u&gt;&lt;div&gt;[N,9]&lt;/div&gt;" style="whiteSpace=wrap;html=1;align=center;" parent="1" vertex="1">
          <mxGeometry x="840" y="360" width="100" height="40" as="geometry" />
        </mxCell>
        <mxCell id="YkJlxvteugCw9PptVSyT-43" value="&lt;u&gt;Extprj_prj_no&lt;/u&gt;&lt;div&gt;[N,9]&lt;/div&gt;" style="whiteSpace=wrap;html=1;align=center;" parent="1" vertex="1">
          <mxGeometry x="840" y="480" width="100" height="40" as="geometry" />
        </mxCell>
        <mxCell id="YkJlxvteugCw9PptVSyT-44" value="&lt;u&gt;Agmt_intprj_prj_no&lt;/u&gt;&lt;div&gt;[N,9]&lt;/div&gt;" style="whiteSpace=wrap;html=1;align=center;" parent="1" vertex="1">
          <mxGeometry x="260" y="360" width="110" height="40" as="geometry" />
        </mxCell>
        <mxCell id="YkJlxvteugCw9PptVSyT-45" value="&lt;u&gt;Agmt_emp_id&lt;/u&gt;&lt;div&gt;[N,9]&lt;/div&gt;" style="whiteSpace=wrap;html=1;align=center;" parent="1" vertex="1">
          <mxGeometry x="160" y="360" width="100" height="40" as="geometry" />
        </mxCell>
        <mxCell id="YkJlxvteugCw9PptVSyT-54" value="L7: VENDOR" style="text;html=1;align=center;verticalAlign=middle;resizable=0;points=[];autosize=1;strokeColor=none;fillColor=none;" parent="1" vertex="1">
          <mxGeometry x="69" y="605" width="90" height="30" as="geometry" />
        </mxCell>
        <mxCell id="YkJlxvteugCw9PptVSyT-55" value="&lt;u&gt;Vdr_name&lt;/u&gt;&lt;div&gt;[X,60]&lt;/div&gt;" style="whiteSpace=wrap;html=1;align=center;" parent="1" vertex="1">
          <mxGeometry x="160" y="600" width="100" height="40" as="geometry" />
        </mxCell>
        <mxCell id="YkJlxvteugCw9PptVSyT-56" value="Vdr_addstreet&lt;div&gt;[X,50]&lt;/div&gt;" style="whiteSpace=wrap;html=1;align=center;" parent="1" vertex="1">
          <mxGeometry x="260" y="600" width="100" height="40" as="geometry" />
        </mxCell>
        <mxCell id="YkJlxvteugCw9PptVSyT-57" value="Vdr_addcity&lt;div&gt;[A,20]&lt;/div&gt;" style="whiteSpace=wrap;html=1;align=center;" parent="1" vertex="1">
          <mxGeometry x="360" y="600" width="100" height="40" as="geometry" />
        </mxCell>
        <mxCell id="YkJlxvteugCw9PptVSyT-58" value="Vdr_addstate&lt;div&gt;[A,20]&lt;/div&gt;" style="whiteSpace=wrap;html=1;align=center;" parent="1" vertex="1">
          <mxGeometry x="460" y="600" width="100" height="40" as="geometry" />
        </mxCell>
        <mxCell id="YkJlxvteugCw9PptVSyT-60" value="Vdr_ctfirstname&lt;div&gt;[A,20]&lt;/div&gt;" style="whiteSpace=wrap;html=1;align=center;" parent="1" vertex="1">
          <mxGeometry x="560" y="600" width="100" height="40" as="geometry" />
        </mxCell>
        <mxCell id="YkJlxvteugCw9PptVSyT-61" value="Vdr_ctmidname&lt;div&gt;[A,20]&lt;br&gt;&lt;/div&gt;" style="whiteSpace=wrap;html=1;align=center;" parent="1" vertex="1">
          <mxGeometry x="660" y="600" width="100" height="40" as="geometry" />
        </mxCell>
        <mxCell id="YkJlxvteugCw9PptVSyT-62" value="Vdr_ctlastname&lt;div&gt;[A,20]&lt;br&gt;&lt;/div&gt;" style="whiteSpace=wrap;html=1;align=center;" parent="1" vertex="1">
          <mxGeometry x="760" y="600" width="100" height="40" as="geometry" />
        </mxCell>
        <mxCell id="bpA1N5vGVymYkkaIcxmK-6" value="L9: ADDRESS1" style="text;html=1;align=center;verticalAlign=middle;resizable=0;points=[];autosize=1;strokeColor=none;fillColor=none;" parent="1" vertex="1">
          <mxGeometry x="49" y="844" width="110" height="30" as="geometry" />
        </mxCell>
        <mxCell id="bpA1N5vGVymYkkaIcxmK-9" value="Addr_Vdr_addcity&lt;div&gt;[A,20]&lt;/div&gt;" style="whiteSpace=wrap;html=1;align=center;" parent="1" vertex="1">
          <mxGeometry x="159" y="839" width="110" height="40" as="geometry" />
        </mxCell>
        <mxCell id="bpA1N5vGVymYkkaIcxmK-10" value="Addr_Vdr_addstate&lt;div&gt;[A.2]&lt;/div&gt;" style="whiteSpace=wrap;html=1;align=center;" parent="1" vertex="1">
          <mxGeometry x="269" y="839" width="110" height="40" as="geometry" />
        </mxCell>
        <mxCell id="bpA1N5vGVymYkkaIcxmK-11" value="&lt;u&gt;Addr_Vdr_addzip&lt;/u&gt;&lt;div&gt;[N,5]&lt;/div&gt;" style="whiteSpace=wrap;html=1;align=center;" parent="1" vertex="1">
          <mxGeometry x="379" y="839" width="100" height="40" as="geometry" />
        </mxCell>
        <mxCell id="bpA1N5vGVymYkkaIcxmK-21" value="L8: ADDRESS0" style="text;html=1;align=center;verticalAlign=middle;resizable=0;points=[];autosize=1;strokeColor=none;fillColor=none;" parent="1" vertex="1">
          <mxGeometry x="49" y="724" width="110" height="30" as="geometry" />
        </mxCell>
        <mxCell id="bpA1N5vGVymYkkaIcxmK-23" value="&lt;u&gt;Addr_Vdr_addstreet&lt;/u&gt;&lt;div&gt;[X,50]&lt;/div&gt;" style="whiteSpace=wrap;html=1;align=center;" parent="1" vertex="1">
          <mxGeometry x="160" y="719" width="120" height="40" as="geometry" />
        </mxCell>
        <mxCell id="bpA1N5vGVymYkkaIcxmK-24" value="&lt;u&gt;Addr_Vdr_addcity&lt;/u&gt;&lt;div&gt;[A,20]&lt;/div&gt;" style="whiteSpace=wrap;html=1;align=center;" parent="1" vertex="1">
          <mxGeometry x="280" y="719" width="110" height="40" as="geometry" />
        </mxCell>
        <mxCell id="bpA1N5vGVymYkkaIcxmK-25" value="&lt;u&gt;Addr_Vdr_addstate&lt;/u&gt;&lt;div&gt;&lt;u&gt;[A,20]&lt;/u&gt;&lt;/div&gt;" style="whiteSpace=wrap;html=1;align=center;" parent="1" vertex="1">
          <mxGeometry x="390" y="719" width="110" height="40" as="geometry" />
        </mxCell>
        <mxCell id="bpA1N5vGVymYkkaIcxmK-26" value="Addr_Vdr_addzip&lt;div&gt;[N,5]&lt;/div&gt;" style="whiteSpace=wrap;html=1;align=center;" parent="1" vertex="1">
          <mxGeometry x="500" y="719" width="100" height="40" as="geometry" />
        </mxCell>
        <mxCell id="bpA1N5vGVymYkkaIcxmK-46" value="Extprj_Vdr_name&lt;div&gt;[X,60]&lt;/div&gt;" style="whiteSpace=wrap;html=1;align=center;" parent="1" vertex="1">
          <mxGeometry x="1050" y="480" width="100" height="40" as="geometry" />
        </mxCell>
        <mxCell id="bpA1N5vGVymYkkaIcxmK-48" value="Intprj_Mngr_emp_id&lt;div&gt;[N,9]&lt;/div&gt;" style="whiteSpace=wrap;html=1;align=center;" parent="1" vertex="1">
          <mxGeometry x="1055" y="360" width="115" height="40" as="geometry" />
        </mxCell>
        <mxCell id="hkRHUBb-2rFUrH8GaNzk-2" value="1&amp;nbsp; &amp;nbsp; &amp;nbsp; &amp;nbsp; &amp;nbsp; &amp;nbsp; &amp;nbsp; &amp;nbsp; d2" style="text;html=1;align=center;verticalAlign=middle;resizable=0;points=[];autosize=1;strokeColor=none;fillColor=none;" vertex="1" parent="1">
          <mxGeometry x="160" y="280" width="100" height="30" as="geometry" />
        </mxCell>
        <mxCell id="hkRHUBb-2rFUrH8GaNzk-5" value="0&amp;nbsp; &amp;nbsp; &amp;nbsp; &amp;nbsp;&amp;nbsp;L1&amp;nbsp; &amp;nbsp; &amp;nbsp; &amp;nbsp; 1" style="text;html=1;align=center;verticalAlign=middle;resizable=0;points=[];autosize=1;strokeColor=none;fillColor=none;" vertex="1" parent="1">
          <mxGeometry x="160" y="210" width="100" height="30" as="geometry" />
        </mxCell>
        <mxCell id="hkRHUBb-2rFUrH8GaNzk-6" value="0&amp;nbsp; &amp;nbsp; &amp;nbsp; &amp;nbsp;&amp;nbsp;L1&amp;nbsp; &amp;nbsp; &amp;nbsp; &amp;nbsp; n" style="text;html=1;align=center;verticalAlign=middle;resizable=0;points=[];autosize=1;strokeColor=none;fillColor=none;" vertex="1" parent="1">
          <mxGeometry x="160" y="330" width="100" height="30" as="geometry" />
        </mxCell>
        <mxCell id="hkRHUBb-2rFUrH8GaNzk-7" value="1&amp;nbsp; &amp;nbsp; &amp;nbsp; &amp;nbsp;&amp;nbsp;R&amp;nbsp; &amp;nbsp; &amp;nbsp; &amp;nbsp; 1" style="text;html=1;align=center;verticalAlign=middle;resizable=0;points=[];autosize=1;strokeColor=none;fillColor=none;" vertex="1" parent="1">
          <mxGeometry x="160" y="400" width="100" height="30" as="geometry" />
        </mxCell>
        <mxCell id="hkRHUBb-2rFUrH8GaNzk-8" value="1&amp;nbsp; &amp;nbsp; &amp;nbsp; &amp;nbsp; &amp;nbsp; &amp;nbsp; &amp;nbsp; &amp;nbsp; d1" style="text;html=1;align=center;verticalAlign=middle;resizable=0;points=[];autosize=1;strokeColor=none;fillColor=none;" vertex="1" parent="1">
          <mxGeometry x="840" y="400" width="100" height="30" as="geometry" />
        </mxCell>
        <mxCell id="hkRHUBb-2rFUrH8GaNzk-9" value="1&amp;nbsp; &amp;nbsp; &amp;nbsp; &amp;nbsp; &amp;nbsp; &amp;nbsp; &amp;nbsp; &amp;nbsp; d1" style="text;html=1;align=center;verticalAlign=middle;resizable=0;points=[];autosize=1;strokeColor=none;fillColor=none;" vertex="1" parent="1">
          <mxGeometry x="840" y="520" width="100" height="30" as="geometry" />
        </mxCell>
        <mxCell id="hkRHUBb-2rFUrH8GaNzk-10" value="0&amp;nbsp; &amp;nbsp; &amp;nbsp; &amp;nbsp;&amp;nbsp;L4&amp;nbsp; &amp;nbsp; &amp;nbsp; &amp;nbsp; 2" style="text;html=1;align=center;verticalAlign=middle;resizable=0;points=[];autosize=1;strokeColor=none;fillColor=none;" vertex="1" parent="1">
          <mxGeometry x="840" y="330" width="100" height="30" as="geometry" />
        </mxCell>
        <mxCell id="hkRHUBb-2rFUrH8GaNzk-11" value="0&amp;nbsp; &amp;nbsp; &amp;nbsp; &amp;nbsp;&amp;nbsp;L4&amp;nbsp; &amp;nbsp; &amp;nbsp; &amp;nbsp; 2" style="text;html=1;align=center;verticalAlign=middle;resizable=0;points=[];autosize=1;strokeColor=none;fillColor=none;" vertex="1" parent="1">
          <mxGeometry x="840" y="450" width="100" height="30" as="geometry" />
        </mxCell>
        <mxCell id="hkRHUBb-2rFUrH8GaNzk-12" value="1&amp;nbsp; &amp;nbsp; &amp;nbsp; &amp;nbsp;&amp;nbsp;R&amp;nbsp; &amp;nbsp; &amp;nbsp; &amp;nbsp; 1" style="text;html=1;align=center;verticalAlign=middle;resizable=0;points=[];autosize=1;strokeColor=none;fillColor=none;" vertex="1" parent="1">
          <mxGeometry x="265" y="400" width="100" height="30" as="geometry" />
        </mxCell>
        <mxCell id="hkRHUBb-2rFUrH8GaNzk-13" value="0&amp;nbsp; &amp;nbsp; &amp;nbsp; &amp;nbsp;&amp;nbsp;L5&amp;nbsp; &amp;nbsp; &amp;nbsp; &amp;nbsp; n" style="text;html=1;align=center;verticalAlign=middle;resizable=0;points=[];autosize=1;strokeColor=none;fillColor=none;" vertex="1" parent="1">
          <mxGeometry x="265" y="330" width="100" height="30" as="geometry" />
        </mxCell>
        <mxCell id="hkRHUBb-2rFUrH8GaNzk-14" value="1&amp;nbsp; &amp;nbsp; &amp;nbsp; &amp;nbsp; L9&amp;nbsp; &amp;nbsp; &amp;nbsp; &amp;nbsp; n" style="text;html=1;align=center;verticalAlign=middle;resizable=0;points=[];autosize=1;strokeColor=none;fillColor=none;" vertex="1" parent="1">
          <mxGeometry x="500" y="689" width="100" height="30" as="geometry" />
        </mxCell>
        <mxCell id="hkRHUBb-2rFUrH8GaNzk-15" value="1&amp;nbsp; &amp;nbsp; &amp;nbsp; &amp;nbsp;&amp;nbsp;R&amp;nbsp; &amp;nbsp; &amp;nbsp; &amp;nbsp; 1" style="text;html=1;align=center;verticalAlign=middle;resizable=0;points=[];autosize=1;strokeColor=none;fillColor=none;" vertex="1" parent="1">
          <mxGeometry x="500" y="759" width="100" height="30" as="geometry" />
        </mxCell>
        <mxCell id="hkRHUBb-2rFUrH8GaNzk-16" value="1&amp;nbsp; &amp;lt;-&amp;nbsp; &amp;nbsp; &amp;nbsp; &amp;nbsp; &amp;nbsp; &amp;nbsp; &amp;nbsp; &amp;nbsp; &amp;nbsp; &amp;nbsp; &amp;nbsp; L8&amp;nbsp; &amp;nbsp; &amp;nbsp; &amp;nbsp; &amp;nbsp; &amp;nbsp; &amp;nbsp; &amp;nbsp; &amp;nbsp; &amp;nbsp; &amp;nbsp; -&amp;gt;&amp;nbsp; n" style="text;html=1;align=center;verticalAlign=middle;resizable=0;points=[];autosize=1;strokeColor=none;fillColor=none;" vertex="1" parent="1">
          <mxGeometry x="290" y="570" width="230" height="30" as="geometry" />
        </mxCell>
        <mxCell id="hkRHUBb-2rFUrH8GaNzk-17" value="1&amp;nbsp; &amp;lt;-&amp;nbsp; &amp;nbsp; &amp;nbsp; &amp;nbsp; &amp;nbsp; &amp;nbsp; &amp;nbsp; &amp;nbsp; &amp;nbsp; &amp;nbsp; &amp;nbsp; R&amp;nbsp; &amp;nbsp; &amp;nbsp; &amp;nbsp; &amp;nbsp; &amp;nbsp; &amp;nbsp; &amp;nbsp; &amp;nbsp; &amp;nbsp; &amp;nbsp; -&amp;gt;&amp;nbsp; 1" style="text;html=1;align=center;verticalAlign=middle;resizable=0;points=[];autosize=1;strokeColor=none;fillColor=none;" vertex="1" parent="1">
          <mxGeometry x="295" y="640" width="230" height="30" as="geometry" />
        </mxCell>
        <mxCell id="hkRHUBb-2rFUrH8GaNzk-18" value="1&amp;nbsp; &amp;nbsp; &amp;nbsp; &amp;nbsp;&amp;nbsp;R&amp;nbsp; &amp;nbsp; &amp;nbsp; &amp;nbsp; 1" style="text;html=1;align=center;verticalAlign=middle;resizable=0;points=[];autosize=1;strokeColor=none;fillColor=none;" vertex="1" parent="1">
          <mxGeometry x="1050" y="520" width="100" height="30" as="geometry" />
        </mxCell>
        <mxCell id="hkRHUBb-2rFUrH8GaNzk-19" value="0&amp;nbsp; &amp;nbsp; &amp;nbsp; &amp;nbsp;&amp;nbsp;L7&amp;nbsp; &amp;nbsp; &amp;nbsp; &amp;nbsp; n" style="text;html=1;align=center;verticalAlign=middle;resizable=0;points=[];autosize=1;strokeColor=none;fillColor=none;" vertex="1" parent="1">
          <mxGeometry x="1050" y="450" width="100" height="30" as="geometry" />
        </mxCell>
        <mxCell id="hkRHUBb-2rFUrH8GaNzk-20" value="0&amp;nbsp; &amp;nbsp; &amp;nbsp; &amp;nbsp; R&amp;nbsp; &amp;nbsp; &amp;nbsp; &amp;nbsp; n" style="text;html=1;align=center;verticalAlign=middle;resizable=0;points=[];autosize=1;strokeColor=none;fillColor=none;" vertex="1" parent="1">
          <mxGeometry x="1062.5" y="400" width="100" height="30" as="geometry" />
        </mxCell>
        <mxCell id="hkRHUBb-2rFUrH8GaNzk-21" value="1&amp;nbsp; &amp;nbsp; &amp;nbsp; &amp;nbsp; L3&amp;nbsp; &amp;nbsp; &amp;nbsp; &amp;nbsp; 1" style="text;html=1;align=center;verticalAlign=middle;resizable=0;points=[];autosize=1;strokeColor=none;fillColor=none;" vertex="1" parent="1">
          <mxGeometry x="1062.5" y="330" width="100" height="30" as="geometry" />
        </mxCell>
      </root>
    </mxGraphModel>
  </diagram>
</mxfile>
